<?xml version="1.0" encoding="UTF-8" standalone="no"?>
<svg
   xmlns:dc="http://purl.org/dc/elements/1.1/"
   xmlns:cc="http://creativecommons.org/ns#"
   xmlns:rdf="http://www.w3.org/1999/02/22-rdf-syntax-ns#"
   xmlns:svg="http://www.w3.org/2000/svg"
   xmlns="http://www.w3.org/2000/svg"
   xmlns:sodipodi="http://sodipodi.sourceforge.net/DTD/sodipodi-0.dtd"
   xmlns:inkscape="http://www.inkscape.org/namespaces/inkscape"
   width="153"
   version="1.1"
   height="81"
   id="svg2"
   inkscape:version="0.91 r13725"
   sodipodi:docname="electronicsguy_oled_SPI_I2C_128x64_breadboard.svg">
  <defs
     id="defs140" />
  <sodipodi:namedview
     pagecolor="#ffffff"
     bordercolor="#666666"
     borderopacity="1"
     objecttolerance="10"
     gridtolerance="10"
     guidetolerance="10"
     inkscape:pageopacity="0"
     inkscape:pageshadow="2"
     inkscape:window-width="1920"
     inkscape:window-height="1018"
     id="namedview138"
     showgrid="false"
     inkscape:object-nodes="true"
     units="in"
     inkscape:zoom="5.6568543"
     inkscape:cx="55.344984"
     inkscape:cy="47.373143"
     inkscape:window-x="-8"
     inkscape:window-y="-8"
     inkscape:window-maximized="1"
     inkscape:current-layer="svg2" />
  <metadata
     id="metadata2991">
    <rdf:RDF>
      <cc:Work
         rdf:about="">
        <dc:format>image/svg+xml</dc:format>
        <dc:type
           rdf:resource="http://purl.org/dc/dcmitype/StillImage" />
        <dc:title></dc:title>
      </cc:Work>
    </rdf:RDF>
  </metadata>
  <path
     d="m 2.84375,7.8906245 c 0,-1.57039 1.2421125,-2.8125 2.8125,-2.8125 l 27,0 c 0,-3.09966 2.4941,-5.625 5.59375,-5.625 3.09966,0 5.625,2.52534 5.625,5.625 l 12.09375,0 14.90625,0 5.625,0 11.34375,0 15.65625,0 c 0,3.09966 2.5254,5.5937505 5.625,5.5937505 3.0997,0 5.59375,-2.4940905 5.59375,-5.5937505 l 27,0 c 1.5704,0 2.8125,1.2421063 2.8125,2.8125 l 0,27.0000005 c 3.0996,0 5.625,2.525341 5.625,5.625 0,3.09966 -2.5254,5.59375 -5.625,5.59375 l 0,27 c 0,1.570395 -1.2421,2.8125 -2.8125,2.8125 l -27,0 c 0,-3.099659 -2.49405,-5.59375 -5.59375,-5.59375 -3.0996,0 -5.625,2.494091 -5.625,5.59375 l -12.09375,0 -14.90625,0 -5.625,0 -18.4375,0 -8.5625,0 c 0,3.0996 -2.52534,5.625 -5.625,5.625 -3.09965,0 -5.59375,-2.5254 -5.59375,-5.625 l -27,0 c -1.5703875,0 -2.8125,-1.2421 -2.8125,-2.8125 l 0,-27 c 3.0996625,0 5.59375,-2.49405 5.59375,-5.59375 0,-3.0996 -2.4940875,-5.625 -5.59375,-5.625 l 0,-27.0000005 z M 35,5.0781245 c 0,1.79454 1.455475,3.25 3.25,3.25 1.79454,0 3.25,-1.45546 3.25,-3.25 0,-1.79454 -1.45546,-3.25 -3.25,-3.25 -1.794525,0 -3.25,1.45546 -3.25,3.25 z m 0,70.8437505 c 0,1.794499 1.455475,3.25 3.25,3.25 1.79454,0 3.25,-1.455501 3.25,-3.25 0,-1.794601 -1.45546,-3.21875 -3.25,-3.21875 -1.794525,0 -3.25,1.424149 -3.25,3.21875 z m 106.3125,-35.40625 c 0,1.794539 1.42415,3.25 3.21875,3.25 1.7945,0 3.25,-1.455461 3.25,-3.25 0,-1.794539 -1.4555,-3.250001 -3.25,-3.250001 -1.7946,0 -3.21875,1.455462 -3.21875,3.250001 z"
     id="rect2992"
     inkscape:connector-curvature="0"
     style="fill:#274a88" />
  <path
     sodipodi:nodetypes="ccccccccccccccccccc"
     style="fill:#ffffff"
     inkscape:connector-curvature="0"
     d="m 108.01801,71.983525 c 0,1.374212 0,2.748424 0,4.122637 -1.03988,-0.137775 -2.93138,0.576175 -2.40488,-1.127825 0,-1.7999 0,-3.599787 0,-5.399688 2.10713,0 4.21425,0 6.32138,0 0,-2.86295 0,-5.725887 0,-8.588837 -15.574502,0 -31.14888,0 -46.72338,0 0,2.86295 0,5.725887 0,8.588837 2.107125,0 4.21425,0 6.321375,0 0,2.175838 0,4.351675 0,6.527513 l -2.404875,0 0,-1.251413 c -0.015,-2.868887 5e-4,-1.25e-4 -0.0125,-2.864762 -9.08075,-0.02062 -18.574506,-0.0062 -26.410881,-0.0062 0,-5.45105 0,-10.9021 0,-16.35315 30.576256,0 61.152631,0 91.728891,0 0,5.45105 0,10.9021 0,16.35315 -8.8065,0 -17.61288,0 -26.41926,0 z"
     id="path2999" />
  <path
     style="fill:#f4b700"
     inkscape:connector-curvature="0"
     d="m 105.61313,76.106162 2.40488,0 0,1.548438 -38.89038,0 0,-1.548438 2.404875,0 34.080625,0 z"
     id="path3001" />
  <path
     style="fill:#888888"
     inkscape:connector-curvature="0"
     d="m 42.708374,55.630375 0,-49.8153005 2.971125,0 88.757761,0 0,0.345525 0,49.4697745 -91.728886,0 z m 4.122625,-45.692663 0,41.569975 83.483641,0 0,-41.569975 -83.483641,0 z"
     id="path3003" />
  <path
     style="fill:#5c4500"
     inkscape:connector-curvature="0"
     d="m 108.01801,77.643462 0,0.0088 -38.89038,0 0,-0.0088 38.89038,0 z"
     id="path3013" />
  <path
     inkscape:connector-curvature="0"
     d="m 71.532505,69.57865 -6.321375,0 0,-8.588838 46.72338,0 0,8.588838 -6.32138,0 0,4.122637 -34.080625,0 0,-4.122637 z"
     id="path3029" />
  <path
     inkscape:connector-curvature="0"
     d="m 71.532505,73.701287 34.080625,0 0,2.404875 -34.080625,0 0,-2.404875 z"
     id="path3031" />
  <path
     style="fill:#242424"
     inkscape:connector-curvature="0"
     d="m 46.830999,51.507687 0,-41.569975 83.483641,0 0,41.569975 -83.483641,0 z"
     id="path3035" />
  <path
     style="fill:none;stroke:#000000;stroke-width:0.043855;stroke-miterlimit:10"
     stroke-miterlimit="10"
     inkscape:connector-curvature="0"
     d="m 108.01801,71.983525 0,4.122637"
     id="path3809" />
  <path
     style="fill:none;stroke:#000000;stroke-width:0.043855;stroke-miterlimit:10"
     stroke-miterlimit="10"
     inkscape:connector-curvature="0"
     d="m 42.708374,71.983525 26.419256,0"
     id="path3811" />
  <path
     style="fill:none;stroke:#000000;stroke-width:0.043855;stroke-miterlimit:10"
     stroke-miterlimit="10"
     inkscape:connector-curvature="0"
     d="m 108.01801,77.254075 0,0.100125"
     id="path3817" />
  <path
     style="fill:none;stroke:#000000;stroke-width:0.043855;stroke-miterlimit:10"
     stroke-miterlimit="10"
     inkscape:connector-curvature="0"
     d="m 108.01801,77.143387 0,0.11075"
     id="path3819" />
  <path
     style="fill:none;stroke:#000000;stroke-width:0.043855;stroke-miterlimit:10"
     stroke-miterlimit="10"
     inkscape:connector-curvature="0"
     d="m 108.01801,77.5747 0,0.04275"
     id="path3821" />
  <path
     style="fill:none;stroke:#000000;stroke-width:0.043855;stroke-miterlimit:10"
     stroke-miterlimit="10"
     inkscape:connector-curvature="0"
     d="m 108.01801,77.35415 0,0.08775"
     id="path3823" />
  <path
     style="fill:none;stroke:#000000;stroke-width:0.043855;stroke-miterlimit:10"
     stroke-miterlimit="10"
     inkscape:connector-curvature="0"
     d="m 108.01801,77.643462 0,0.0088"
     id="path3825" />
  <path
     style="fill:none;stroke:#000000;stroke-width:0.043855;stroke-miterlimit:10"
     stroke-miterlimit="10"
     inkscape:connector-curvature="0"
     d="m 108.01801,77.51585 0,0.05888"
     id="path3827" />
  <path
     style="fill:none;stroke:#000000;stroke-width:0.043855;stroke-miterlimit:10"
     stroke-miterlimit="10"
     inkscape:connector-curvature="0"
     d="m 108.01801,77.4419 0,0.074"
     id="path3829" />
  <path
     style="fill:none;stroke:#000000;stroke-width:0.043855;stroke-miterlimit:10"
     stroke-miterlimit="10"
     inkscape:connector-curvature="0"
     d="m 108.01801,77.6175 0,0.026"
     id="path3831" />
  <path
     style="fill:none;stroke:#000000;stroke-width:0.043855;stroke-miterlimit:10"
     stroke-miterlimit="10"
     inkscape:connector-curvature="0"
     d="m 69.12763,77.254075 0,0.100125"
     id="path3833" />
  <path
     style="fill:none;stroke:#000000;stroke-width:0.043855;stroke-miterlimit:10"
     stroke-miterlimit="10"
     inkscape:connector-curvature="0"
     d="m 69.12763,77.643462 0,0.0088"
     id="path3835" />
  <path
     style="fill:none;stroke:#000000;stroke-width:0.043855;stroke-miterlimit:10"
     stroke-miterlimit="10"
     inkscape:connector-curvature="0"
     d="m 108.01801,77.65215 -38.89038,0"
     id="path3837" />
  <path
     style="fill:none;stroke:#000000;stroke-width:0.043855;stroke-miterlimit:10"
     stroke-miterlimit="10"
     inkscape:connector-curvature="0"
     d="m 134.43726,55.630375 -91.728886,0"
     id="path3841" />
  <path
     style="fill:none;stroke:#000000;stroke-width:0.043855;stroke-miterlimit:10"
     stroke-miterlimit="10"
     inkscape:connector-curvature="0"
     d="m 46.830999,51.507687 83.483641,0"
     id="path3845" />
  <path
     style="fill:none;stroke:#000000;stroke-width:0.043855;stroke-miterlimit:10"
     stroke-miterlimit="10"
     inkscape:connector-curvature="0"
     d="m 130.31464,51.507687 0,-41.569975"
     id="path3847" />
  <path
     style="fill:none;stroke:#000000;stroke-width:0.043855;stroke-miterlimit:10"
     stroke-miterlimit="10"
     inkscape:connector-curvature="0"
     d="m 65.21113,69.57865 6.321375,0"
     id="path3851" />
  <path
     style="fill:none;stroke:#000000;stroke-width:0.043855;stroke-miterlimit:10"
     stroke-miterlimit="10"
     inkscape:connector-curvature="0"
     d="m 71.532505,69.57865 0,4.122637"
     id="path3853" />
  <path
     style="fill:none;stroke:#000000;stroke-width:0.043855;stroke-miterlimit:10"
     stroke-miterlimit="10"
     inkscape:connector-curvature="0"
     d="m 71.532505,73.701287 34.080625,0"
     id="path3855" />
  <path
     style="fill:none;stroke:#000000;stroke-width:0.043855;stroke-miterlimit:10"
     stroke-miterlimit="10"
     inkscape:connector-curvature="0"
     d="m 105.61313,73.701287 0,-4.122638"
     id="path3857" />
  <path
     style="fill:none;stroke:#000000;stroke-width:0.043855;stroke-miterlimit:10"
     stroke-miterlimit="10"
     inkscape:connector-curvature="0"
     d="m 105.61313,69.57865 6.32138,0"
     id="path3859" />
  <path
     style="fill:none;stroke:#000000;stroke-width:0.043855;stroke-miterlimit:10"
     stroke-miterlimit="10"
     inkscape:connector-curvature="0"
     d="m 111.93451,69.57865 0,-8.588838"
     id="path3861" />
  <path
     style="fill:none;stroke:#000000;stroke-width:0.043855;stroke-miterlimit:10"
     stroke-miterlimit="10"
     inkscape:connector-curvature="0"
     d="m 111.93451,60.989812 -46.72338,0"
     id="path3863" />
  <path
     style="fill:none;stroke:#000000;stroke-width:0.043855;stroke-miterlimit:10"
     stroke-miterlimit="10"
     inkscape:connector-curvature="0"
     d="m 65.21113,60.989812 0,8.588837"
     id="path3865" />
  <path
     style="fill:none;stroke:#000000;stroke-width:0.043855;stroke-miterlimit:10"
     stroke-miterlimit="10"
     inkscape:connector-curvature="0"
     d="m 71.532505,73.701287 0,2.404875"
     id="path3867" />
  <path
     style="fill:none;stroke:#000000;stroke-width:0.043855;stroke-miterlimit:10"
     stroke-miterlimit="10"
     inkscape:connector-curvature="0"
     d="m 105.61313,73.701287 0,2.404875"
     id="path3869" />
  <path
     style="fill:none;stroke:#000000;stroke-width:0.043855;stroke-miterlimit:10"
     stroke-miterlimit="10"
     inkscape:connector-curvature="0"
     d="m 69.12763,76.106162 0,-1.234775"
     id="path4051" />
  <path
     style="fill:none;stroke:#000000;stroke-width:0.043855;stroke-miterlimit:10"
     stroke-miterlimit="10"
     inkscape:connector-curvature="0"
     d="m 69.12763,74.871387 0,-2.887862"
     id="path4053" />
  <path
     style="fill:none;stroke:#000000;stroke-width:0.043855;stroke-miterlimit:10"
     stroke-miterlimit="10"
     inkscape:connector-curvature="0"
     d="m 108.01801,71.983525 7.375,0"
     id="path4063" />
  <path
     style="fill:none;stroke:#000000;stroke-width:0.043855;stroke-miterlimit:10"
     stroke-miterlimit="10"
     inkscape:connector-curvature="0"
     d="m 115.39301,71.983525 19.04425,0"
     id="path4065" />
  <path
     style="fill:none;stroke:#000000;stroke-width:0.043855;stroke-miterlimit:10"
     stroke-miterlimit="10"
     inkscape:connector-curvature="0"
     d="m 69.12763,77.6175 0,0.026"
     id="path4067" />
  <path
     style="fill:none;stroke:#000000;stroke-width:0.043855;stroke-miterlimit:10"
     stroke-miterlimit="10"
     inkscape:connector-curvature="0"
     d="m 69.12763,77.5747 0,0.04275"
     id="path4069" />
  <path
     style="fill:none;stroke:#000000;stroke-width:0.043855;stroke-miterlimit:10"
     stroke-miterlimit="10"
     inkscape:connector-curvature="0"
     d="m 108.01801,77.024012 0,0.119375"
     id="path4071" />
  <path
     style="fill:none;stroke:#000000;stroke-width:0.043855;stroke-miterlimit:10"
     stroke-miterlimit="10"
     inkscape:connector-curvature="0"
     d="m 69.12763,77.51585 0,0.05888"
     id="path4073" />
  <path
     style="fill:none;stroke:#000000;stroke-width:0.043855;stroke-miterlimit:10"
     stroke-miterlimit="10"
     inkscape:connector-curvature="0"
     d="m 69.12763,77.4419 0,0.074"
     id="path4075" />
  <path
     style="fill:none;stroke:#000000;stroke-width:0.043855;stroke-miterlimit:10"
     stroke-miterlimit="10"
     inkscape:connector-curvature="0"
     d="m 108.01801,76.897975 0,0.126037"
     id="path4077" />
  <path
     style="fill:none;stroke:#000000;stroke-width:0.043855;stroke-miterlimit:10"
     stroke-miterlimit="10"
     inkscape:connector-curvature="0"
     d="m 69.12763,77.35415 0,0.08775"
     id="path4079" />
  <path
     style="fill:none;stroke:#000000;stroke-width:0.043855;stroke-miterlimit:10"
     stroke-miterlimit="10"
     inkscape:connector-curvature="0"
     d="m 108.01801,76.767462 0,0.130513"
     id="path4081" />
  <path
     style="fill:none;stroke:#000000;stroke-width:0.043855;stroke-miterlimit:10"
     stroke-miterlimit="10"
     inkscape:connector-curvature="0"
     d="m 69.12763,77.143387 0,0.11075"
     id="path4083" />
  <path
     style="fill:none;stroke:#000000;stroke-width:0.043855;stroke-miterlimit:10"
     stroke-miterlimit="10"
     inkscape:connector-curvature="0"
     d="m 69.12763,77.143387 0,-0.119375"
     id="path4085" />
  <path
     style="fill:none;stroke:#000000;stroke-width:0.043855;stroke-miterlimit:10"
     stroke-miterlimit="10"
     inkscape:connector-curvature="0"
     d="m 69.12763,76.634624 0,0.132838"
     id="path4087" />
  <path
     style="fill:none;stroke:#000000;stroke-width:0.043855;stroke-miterlimit:10"
     stroke-miterlimit="10"
     inkscape:connector-curvature="0"
     d="m 108.01801,76.634624 0,0.132838"
     id="path4089" />
  <path
     style="fill:none;stroke:#000000;stroke-width:0.043855;stroke-miterlimit:10"
     stroke-miterlimit="10"
     inkscape:connector-curvature="0"
     d="m 69.12763,77.024012 0,-0.126037"
     id="path4091" />
  <path
     style="fill:none;stroke:#000000;stroke-width:0.043855;stroke-miterlimit:10"
     stroke-miterlimit="10"
     inkscape:connector-curvature="0"
     d="m 69.12763,76.767462 0,0.130513"
     id="path4093" />
  <path
     style="fill:none;stroke:#000000;stroke-width:0.043855;stroke-miterlimit:10"
     stroke-miterlimit="10"
     inkscape:connector-curvature="0"
     d="m 108.01801,76.106162 0,0.528462"
     id="path4095" />
  <path
     style="fill:none;stroke:#000000;stroke-width:0.043855;stroke-miterlimit:10"
     stroke-miterlimit="10"
     inkscape:connector-curvature="0"
     d="m 69.12763,76.634624 0,-0.528462"
     id="path4097" />
  <g
     id="g4019">
    <g
       id="g102"
       transform="matrix(1.2499976,0,0,1.2499976,-3.1969211,-1267.8921)">
      <path
         style="fill:#ffe500"
         inkscape:connector-curvature="0"
         id="connector3pin"
         d="m 15.662983,1029.8187 0,-2.2677 2.267515,0 0,2.2677 -2.267515,0 z" />
      <path
         style="fill:#ffe500"
         inkscape:connector-curvature="0"
         id="connector2pin"
         d="m 17.930539,1033.1832 0,2.2677 -2.267556,0 0,-2.2677 2.267556,0 z" />
      <path
         style="fill:#ffe500"
         inkscape:connector-curvature="0"
         id="connector1pin"
         d="m 15.662983,1038.9076 2.267515,0 0,2.2677 -2.267515,0 0,-2.2677 z" />
      <path
         style="fill:#ffe500"
         inkscape:connector-curvature="0"
         id="connector0pin"
         d="m 15.662983,1044.5859 2.267515,0 0,2.2677 -2.267515,0 0,-2.2677 z" />
    </g>
    <path
       d="m 16.293833,48.145203 0,-2.834619 2.834388,0 0,2.834619 -2.834388,0 z"
       id="connector3pin-2"
       inkscape:connector-curvature="0"
       style="fill:#ffe500" />
    <path
       d="m 19.128273,52.35082 0,2.83462 -2.83444,0 0,-2.83462 2.83444,0 z"
       id="connector2pin-0"
       inkscape:connector-curvature="0"
       style="fill:#ffe500" />
    <path
       d="m 16.293833,59.506307 2.834388,0 0,2.834619 -2.834388,0 0,-2.834619 z"
       id="connector1pin-2"
       inkscape:connector-curvature="0"
       style="fill:#ffe500" />
  </g>
  <g
     id="g4029">
    <text
       sodipodi:linespacing="125%"
       x="24.299116"
       y="40.558723"
       id="tspan11445"
       font-size="3.2"
       style="font-style:normal;font-variant:normal;font-weight:normal;font-stretch:normal;font-size:4px;line-height:125%;font-family:OCRA;-inkscape-font-specification:'OCRA, Normal';text-align:start;writing-mode:lr-tb;text-anchor:start;fill:#ffffff">
      <tspan
         y="40.558723"
         x="24.299116"
         id="tspan3938"
         sodipodi:role="line">D1</tspan>
    </text>
    <text
       sodipodi:linespacing="125%"
       x="24.299116"
       y="33.721096"
       id="tspan11445-6"
       font-size="3.2"
       style="font-style:normal;font-variant:normal;font-weight:normal;font-stretch:normal;font-size:4px;line-height:125%;font-family:OCRA;-inkscape-font-specification:'OCRA, Normal';text-align:start;writing-mode:lr-tb;text-anchor:start;fill:#ffffff">
      <tspan
         y="33.721096"
         x="24.299116"
         id="tspan3936"
         sodipodi:role="line">D0</tspan>
    </text>
    <text
       sodipodi:linespacing="125%"
       x="24.122339"
       y="26.883469"
       id="tspan11445-1"
       font-size="3.2"
       style="font-style:normal;font-variant:normal;font-weight:normal;font-stretch:normal;font-size:4px;line-height:125%;font-family:OCRA;-inkscape-font-specification:'OCRA, Normal';text-align:start;writing-mode:lr-tb;text-anchor:start;fill:#ffffff">
      <tspan
         y="26.883469"
         x="24.122339"
         id="tspan3934"
         sodipodi:role="line">VCC</tspan>
    </text>
    <text
       sodipodi:linespacing="125%"
       x="24.122339"
       y="19.692284"
       id="tspan11445-7"
       font-size="3.2"
       style="font-style:normal;font-variant:normal;font-weight:normal;font-stretch:normal;font-size:4px;line-height:125%;font-family:OCRA;-inkscape-font-specification:'OCRA, Normal';text-align:start;writing-mode:lr-tb;text-anchor:start;fill:#ffffff">
      <tspan
         y="19.692284"
         x="24.122339"
         id="tspan3932"
         sodipodi:role="line">GND</tspan>
    </text>
    <text
       sodipodi:linespacing="125%"
       x="24.223593"
       y="48.009075"
       id="tspan11445-9"
       font-size="3.2"
       style="font-style:normal;font-variant:normal;font-weight:normal;font-stretch:normal;font-size:4px;line-height:125%;font-family:OCRA;-inkscape-font-specification:'OCRA, Normal';text-align:start;writing-mode:lr-tb;text-anchor:start;fill:#ffffff">
      <tspan
         y="48.009075"
         x="24.223593"
         id="tspan4009"
         sodipodi:role="line">RST</tspan>
    </text>
    <text
       sodipodi:linespacing="125%"
       x="24.311979"
       y="55.168533"
       id="tspan11445-63"
       font-size="3.2"
       style="font-style:normal;font-variant:normal;font-weight:normal;font-stretch:normal;font-size:4px;line-height:125%;font-family:OCRA;-inkscape-font-specification:'OCRA, Normal';text-align:start;writing-mode:lr-tb;text-anchor:start;fill:#ffffff">
      <tspan
         y="55.168533"
         x="24.311979"
         id="tspan4011"
         sodipodi:role="line">DC</tspan>
    </text>
    <text
       sodipodi:linespacing="125%"
       x="24.40037"
       y="62.593155"
       id="tspan11445-8"
       font-size="3.2"
       style="font-style:normal;font-variant:normal;font-weight:normal;font-stretch:normal;font-size:4px;line-height:125%;font-family:OCRA;-inkscape-font-specification:'OCRA, Normal';text-align:start;writing-mode:lr-tb;text-anchor:start;fill:#ffffff">
      <tspan
         y="62.593155"
         x="24.40037"
         id="tspan4013"
         sodipodi:role="line">CS</tspan>
    </text>
  </g>
</svg>
